<svg version="1.2" xmlns="http://www.w3.org/2000/svg" viewBox="0 0 170 198" width="170" height="198">
	<title>White Tex Logo Design-pdf</title>
	<defs>
		<clipPath clipPathUnits="userSpaceOnUse" id="cp1">
			<path d="m-337-128h850v850h-850z"/>
		</clipPath>
	</defs>
	<style>
		.s0 { fill: #ffffff } 
		.s1 { fill: #1a1a1a } 
		.s2 { fill: #b5955a } 
		.s3 { fill: #e7e7e7 } 
	</style>
	<g id="Page 1" clip-path="url(#cp1)">
		<path id="Path 1" class="s0" d="m-337.1-128.3h850.4v850.4h-850.4z"/>
		<path id="Path 2" fill-rule="evenodd" class="s1" d="m36.7 92.5l32.2 52.8 32.3-52.8c7.1 4.4 9.1 4.3 16.9 4.6l-49.5 81.7-51.6-86.1zm70.6 52.9l32.3-52.6h19.6l-51.5 85.6-16.1-26.1 9.9-16zm-49.3-48.4c7.8-0.3 9.8-0.2 16.9-4.5l9.9 16-9.9 16.2z"/>
		<path id="Path 3" fill-rule="evenodd" class="s2" d="m52.2 81.9c-5.8-2.3-10.3-6.8-12.6-12.8-2-5.3-2-11.4 0.4-16.6 2.2-4.9 6.1-8.3 11.1-10 4.9-1.6 10.2-1.4 15.1-0.4l3.2 0.7-0.8-3.2c-3.7-14.7 3.3-28.1 19.5-28.1 16.2 0 23.2 13.4 19.5 28.1l-0.8 3.2 3.1-0.7c5-1 10.3-1.2 15.1 0.4 5.1 1.7 9 5.1 11.2 10 2.4 5.2 2.4 11.3 0.4 16.6-2.3 6-6.8 10.5-12.6 12.8-10.9 4.3-19.4-0.4-25.9-9.1 0-0.1 11.7 6.8 20.4-0.9 3.6-3.2 5.9-8.4 4.9-13.2-2.2-10.9-16.2-10.1-24.6-9.1 6-10.1 2-22.7-10.7-23.2-12.7 0.5-16.7 13.1-10.7 23.2-8.4-1-22.4-1.8-24.6 9.1-1 4.8 1.3 10 4.9 13.2 8.7 7.7 20.4 0.8 20.4 0.9-6.5 8.7-15 13.4-25.9 9.1zm35.9-11.9c3.4 0 6.1 2.7 6.1 6.1 0 3.4-2.7 6.2-6.1 6.2-3.4 0-6.1-2.8-6.1-6.2 0-3.4 2.7-6.1 6.1-6.1zm-5.3-13.7c-1.5-4.9 2-8.1 5.3-8.2 3.3 0.1 6.7 3.3 5.3 8.2q1.1 0 2 0c6.9 0.2 6.1 10.3-0.7 10.7-2.1 0.1-3.9-1.5-6.6-1.5-2.7 0-4.5 1.6-6.6 1.5-6.8-0.4-7.6-10.5-0.7-10.7 0.6 0 1.3 0 2 0z"/>
		<path id="Path 4" fill-rule="evenodd" class="s1" d="m-89.5 275.7l-11.7-49.9h10.3l7.5 34.2 9-34.2h12l8.7 34.8 7.6-34.8h10.2l-12 49.9h-10.8l-9.9-37.3-9.8 37.3zm320.6 0l17.2-26-15.6-23.9h11.8l9.8 14.8 9.8-14.8h11.8l-15.6 23.9 17.1 26h-12.1l-11-16.9-11.1 16.9zm-41.3 0v-49.9h36.8v8.4h-26.8v11.1h25v8.4h-25v13.5h27.8v8.5zm-31.3 0v-41.5h-14.8v-8.4h39.6v8.4h-14.7v41.5zm-77 0v-49.9h36.9v8.4h-26.8v11.1h24.9v8.4h-24.9v13.5h27.8v8.5zm-31.3 0v-41.5h-14.8v-8.4h39.6v8.4h-14.7v41.5zm-30.9 0v-49.9h10.1v49.9zm-50 0v-49.9h10.1v19.6h19.7v-19.6h10.1v49.9h-10.1v-21.8h-19.7v21.8zm-59.8 30.6v-13.5h2.4v13.5zm349-0.8l0.9-2.1q1.4 1 2.8 1 2.1 0 2.1-1.5 0-0.7-0.5-1.3-0.5-0.7-2.1-1.4-1.5-0.8-2.1-1.3-0.5-0.5-0.8-1.2-0.3-0.7-0.3-1.5 0-1.6 1.2-2.6 1.1-1.1 2.9-1.1 2.4 0 3.5 0.9l-0.8 2.1q-1.2-0.9-2.6-0.9-0.9 0-1.3 0.4-0.5 0.4-0.5 1.1 0 1.2 2.6 2.5 1.3 0.6 1.9 1.2 0.6 0.5 1 1.3 0.3 0.7 0.3 1.6 0 1.7-1.3 2.7-1.3 1.1-3.5 1.1-1.9 0-3.4-1zm-10.4-10.6v3.1h4.3v2.1h-4.3v4h6.1v2.2h-8.5v-13.5h8.5v2.1zm-15.6 11.4v-13.5h2.4v11.3h6.1v2.2zm-7.9 0v-13.5h2.4v13.5zm-8.8-11.4v11.4h-2.4v-11.4h-4.3v-2.1h11.2v2.1zm-12.3 11.4l-3-5-3.2 5h-2.4l4.3-7-4-6.6 2.4 0.1 2.9 4.5 2.9-4.5h2.5l-4.1 6.5 4.3 7zm-18.4-11.4v3.1h4.4v2.1h-4.4v4h6.2v2.2h-8.6v-13.5h8.6v2.1zm-11.2 0v11.4h-2.4v-11.4h-4.3v-2.1h11.2v2.1zm-16.3-1l-1 1.9q-0.4-0.4-1.3-0.8-0.9-0.3-1.5-0.3-2 0-3.2 1.3-1.1 1.4-1.1 3.6 0 2.2 1.1 3.5 1.1 1.3 3.1 1.3 1.3 0 2.1-0.7v-2.7h-1.9v-2h4.3v6q-0.9 0.7-2.2 1.1-1.4 0.4-2.7 0.4-2.9 0-4.6-1.9-1.7-1.9-1.7-5 0-3.2 1.8-5.1 1.9-2 5-2 2.3 0 3.8 1.4zm-16.4 12.6l-6.6-8.6v8.4h-2.3v-13.5h1.2l6.3 8.1v-8.1h2.3v13.7zm-16.7-0.2v-13.5h2.4v13.5zm-12 0h-2.9v-13.5q2.8-0.1 3.6-0.1 2.9 0 4.6 1.7 1.8 1.7 1.8 4.6 0 7.3-7.1 7.3zm-0.5-11.4v9.2q0.5 0 1.2 0 1.8 0 2.8-1.3 1.1-1.3 1.1-3.7 0-4.3-4.1-4.3-0.3 0-1 0.1zm-9.2 11.4l-1-2.8h-4.7l-0.9 2.8h-2.7l5.4-13.7h1.1l5.4 13.7zm-3.3-9.6l-1.6 5h3.2zm-11.2 9.5l-3.6-5.5q-0.5 0-1.5-0.1v5.6h-2.5v-13.5q0.2 0 1.5 0 1.4-0.1 2.2-0.1 5.2 0 5.2 4 0 1.2-0.7 2.2-0.7 1-1.8 1.4l4 6zm-5.2-11.4v3.8q0.7 0 1 0 1.6 0 2.2-0.4 0.7-0.4 0.7-1.6 0-1-0.7-1.4-0.7-0.4-2.4-0.4-0.3 0-0.8 0zm-11.2 0.1v11.3h-2.4v-11.3h-4.3v-2.2h11.2v2.2zm-19.8 10.9q-1.4 0.6-3.2 0.6-2 0-3.2-1.2-1.1-1.1-1.1-3.2 0-2 1.4-3.4-1.2-1.2-1.2-2.6 0-1.4 1.2-2.5 1.1-1 3-1 2 0 3.3 1l-1 1.7q-1.2-0.8-2-0.8-1.1 0-1.6 0.5-0.6 0.5-0.6 1.3 0 1 0.9 1.7h3.1v-1.5l2.3-0.9v2.4h2.3v2h-2.3v2.6q0 1.1 0.2 1.5 0.3 0.4 1 0.4 0.6 0 1.3-0.3v2q-1 0.3-2.1 0.3-0.9 0-1.7-0.6zm-1-2.6v-3.3h-3.3q-0.8 0.9-0.8 2 0 2.5 2.6 2.5 1 0 1.5-0.3 0-0.3 0-0.9zm-24.3 3v-13.5h2.4v11.4h6.1v2.1zm-6.8 0l-1-2.7h-4.6l-1 2.7h-2.6l5.4-13.6h1l5.5 13.6zm-3.4-9.5l-1.6 5h3.3zm-12.5 9.5v-13.5h2.4v13.5zm-6.7 0l-3.6-5.5q-0.6 0-1.6-0.1v5.6h-2.5v-13.5q0.3 0 1.6 0 1.4-0.1 2.2-0.1 5.1 0 5.1 4 0 1.2-0.7 2.2-0.7 0.9-1.8 1.4l4 6zm-5.1-11.4v3.8q0.7 0 1 0 1.5 0 2.2-0.4 0.7-0.4 0.7-1.7 0-1-0.7-1.4-0.8-0.3-2.4-0.3-0.4 0-0.8 0zm-11.3 0.1v11.3h-2.4v-11.3h-4.3v-2.2h11.2v2.2zm-18.5 10.6l0.9-2.2q1.4 1 2.8 1 2.1 0 2.1-1.4 0-0.7-0.5-1.4-0.5-0.6-2-1.4-1.6-0.7-2.1-1.2-0.6-0.5-0.9-1.2-0.3-0.7-0.3-1.6 0-1.5 1.2-2.6 1.1-1 2.9-1 2.4 0 3.5 0.9l-0.8 2.1q-1.2-1-2.6-1-0.8 0-1.3 0.5-0.5 0.4-0.5 1.1 0 1.2 2.6 2.4 1.4 0.7 2 1.2 0.6 0.6 0.9 1.3 0.3 0.8 0.3 1.7 0 1.6-1.3 2.7-1.3 1.1-3.5 1.1-1.9 0-3.4-1zm-14.9-12.8h2.4v9.2q0 1.1 0.7 1.7 0.6 0.7 1.8 0.7 1.3 0 2-0.6 0.8-0.7 0.8-1.9v-9.1h2.4v9.3q-0.1 2.1-1.4 3.3-1.4 1.2-3.8 1.2-2.3 0-3.6-1.2-1.3-1.1-1.3-3.3zm-11.8 13.5h-3v-13.5q2.8-0.1 3.6-0.1 2.9 0 4.6 1.7 1.8 1.8 1.8 4.6 0 7.3-7 7.3zm-0.6-11.4v9.2q0.5 0.1 1.2 0.1 1.8 0 2.9-1.3 1-1.4 1-3.7 0-4.4-4-4.4-0.4 0-1.1 0.1zm-8.9 11.6l-6.6-8.6v8.4h-2.3v-13.5h1.2l6.4 8.2v-8.2h2.3v13.7zm-248 162.8q1.3-0.9 2.6-2c7.4 4.5 13.9 10.8 20.2 17.1 1.6 1.6 3.2 3.1 4.7 4.6 21 20.2 42.3 28.9 63.8 28 17.4-0.7 34.9-7.6 52.6-19.8q7.7 1 15.3 1c26.2 0.2 51.1-8.1 72.7-22.4 3.9 3.2 8.1 6.9 12.8 11.1 26.2 23.9 49.9 32.1 71.9 30.1 18.2-1.6 35.2-10.2 51.5-22.5 11.4 3.3 22.7 4.9 34 4.9 20.3-0.1 40.2-5.4 59.1-15.7q3.5 3 7.4 6.4l2 1.8c19.7 17.2 40.1 25.7 61.1 26.3 21.1 0.7 42.7-6.5 64.9-20.7 2.9-1.9 5.5-3.7 7.9-5.2 12.2 3.1 25.6 4.6 41.1 4.6h189.4v225.2h-850.4v-242.2c5-3.2 10.1-6.6 15.4-10.6z"/>
		<path id="Path 5" fill-rule="evenodd" class="s2" d="m513.3 416.8h-182.3c-22.8 0-43.8-1.3-64.1-5.8-20.1-4.4-39.4-11.9-59.1-24.3-9.4 6.8-19.7 12.3-30.6 16.8 12.7 5.4 27.3 13.2 45.2 23.7 15.6 9.2 31.6 16.2 48.2 21q4-1.4 8.2-3c12.4-4.8 21.5-7.2 30.8-8.5 9.2-1.3 18.6-1.4 31.5-1.4h172.2v1.9h-172.2c-12.9 0-22.1 0.1-31.2 1.3-9.1 1.3-18.1 3.7-30.5 8.4q-2.9 1.1-5.7 2.2c17.2 4.6 35.1 7 53.8 7h185.8v1.8h-185.8c-19.2 0-37.6-2.4-55.2-7.3q-0.8-0.2-1.6-0.5c-14.2 5-27.2 8.5-39.5 10.6 12.1 11.1 24 19.1 37.1 24.6q6.8 2.9 14.2 4.9 2.4-1.6 4.4-3.1c15.4-10.5 17.2-11.8 48.7-11.8h177.7v1.9h-177.7c-31 0-32.7 1.2-47.6 11.5q-1.5 1-3.1 2.1c11.6 2.9 24.3 4.2 39 4.2h189.4v1.8h-189.4c-15.5 0-28.9-1.4-41.1-4.6-2.3 1.6-4.9 3.3-7.9 5.2-22.2 14.2-43.8 21.4-64.8 20.8-21.1-0.7-41.5-9.2-61.2-26.3l-2-1.8q-3.9-3.4-7.4-6.4c-18.8 10.2-38.7 15.6-59.1 15.6-11.2 0.1-22.6-1.5-33.9-4.8-16.4 12.3-33.4 20.8-51.6 22.4-22 2-45.6-6.2-71.9-30-4.6-4.3-8.9-8-12.8-11.2-21.6 14.3-46.5 22.6-72.6 22.5q-7.6-0.1-15.4-1.1c-17.6 12.2-35.1 19.2-52.5 19.9-21.6 0.8-42.9-7.9-63.8-28-1.6-1.5-3.2-3.1-4.8-4.7-6.3-6.2-12.7-12.6-20.2-17q-1.3 1-2.6 2c-5.2 4-10.3 7.4-15.4 10.6v-2.2c4.7-3 9.4-6.2 14.3-9.9q1-0.7 2-1.5c-4.9-2.7-10.3-4.5-16.3-4.9v-1.8c6.7 0.4 12.5 2.4 17.9 5.4 4.2-3.4 8.5-7.3 13.1-11.9l0.6-0.6c-9.5-3.6-19.9-8.5-31.6-14.7v-2.1c12.3 6.6 23.1 11.6 33 15.4 3.2-3.3 5.8-6.2 8-8.6 5.5-6.2 8.5-9.4 12-9.5 3.9-0.1 7.8 3.8 16.1 12 2.2 2.1 4.6 4.5 7.5 7.2q4.4 4.3 8.9 8c15.7-1.1 30.3-5.8 47.9-11.4 7-2.3 14.6-4.7 22.8-7.1q-17-4.6-34.2-10.3c-6.8-2.2-15.1-5.4-24.3-8.9-12.9-4.9-27.4-10.4-41.5-14.8q-1.4 0.4-2.8 0.9c-16.8 5.2-34.5 8.5-53.4 9.2v-1.8c18.7-0.8 36.2-4 52.8-9.2l0.3-0.1c-21.2-6.4-41.1-10.1-53.1-5.3v-2c13-4.8 34.1-0.5 56.1 6.3 15.9-5.2 30.8-12.3 45.1-20.9 0.3-0.2 0.6-0.2 0.9 0 35.5 20.8 73 30.9 110.3 30.9 38.1 0 76.1-10.5 111.7-30.9 0.3-0.2 0.6-0.2 0.9 0 24.5 15.6 55.3 25.8 87.4 29.4 39.8-20.1 59.9-28 99.5-11.7 11.5-4.6 22.4-10.4 32.4-17.6 0.3-0.3 0.7-0.3 1.1-0.1 19.6 12.5 39 20 59 24.4 20.1 4.5 41 5.8 63.7 5.8h182.3zm-775.1 36.7q-4.2-4.1-7.5-7.3c-7.9-7.8-11.7-11.5-14.8-11.4-2.7 0.1-5.4 3.1-10.7 8.9-2 2.3-4.5 5-7.4 8 18.8 7 33.8 9.3 47.9 8.6q-3.8-3.2-7.5-6.8zm-43 0.9c-4.4 4.4-8.6 8.2-12.7 11.6 7.3 4.5 13.7 10.8 19.9 17q2.4 2.3 4.8 4.6c20.5 19.7 41.3 28.3 62.4 27.4 16.5-0.6 33.1-7 49.9-18.3-23.7-3.8-48.1-14.7-71.7-34.6-15.1 1-31.1-1.2-51.5-8.9zm126.6 40.8q6-4.2 12-9.2c20.4-16.9 32.6-26.5 45-27.1 9.4-0.4 18.7 4.2 31.6 14.5 6.7-4.5 13.2-9.7 19.2-15.4q-5.2 0-10.4-0.1c-31.3-1-63.6-6.5-96.6-15.2-9.4 2.6-17.8 5.3-25.7 7.8-17 5.5-31.3 10.1-46.5 11.5 23.5 19.4 47.8 29.9 71.4 33.2zm90.1-20.5c3.8 3.1 7.9 6.7 12.4 10.8 25.8 23.5 49 31.5 70.5 29.6 17.4-1.5 33.7-9.6 49.5-21.3-21.7-6.7-43.3-19.7-63.9-39.3l-0.9-0.9c-15.4 2.8-31.2 4.2-47.2 4.4-6.4 6.2-13.2 11.7-20.4 16.7zm134.2 17.7q4.7-3.6 9.3-7.5c41.6-35.6 48.6-34.3 84.4-3.5 10-5.6 19.8-12.6 29.1-21-22.1-3.9-45-11.3-72.7-20.8-14.4-5-29.1-8.7-44-11.5q-4.6 2.3-9.5 4.8c-19.7 9.6-40.1 16.3-61 20.3 20.8 19.8 42.6 32.7 64.4 39.2zm95.2-9.7q3.2 2.8 6.8 6l2.1 1.8c19.3 16.8 39.4 25.2 60 25.8 20.6 0.7 41.9-6.4 63.7-20.4q3.6-2.4 6.6-4.3-6.7-1.9-12.9-4.6c-13.7-5.7-26.1-14.2-38.7-25.9-14.6 2.3-28.2 2.7-41.8 1.6q-7.9-0.6-15.9-1.9c-9.6 8.7-19.6 16.1-29.9 21.9zm126.4-33.5c-16-4.8-31.3-11.6-46.2-20.4-18.6-11-33.7-18.9-46.7-24.3-22.8 8.9-48 13.1-73.2 13.1-8.7 0-17.3-0.5-25.9-1.4q-4 2-8.2 4.1-6 3.1-12.6 6.4c14.2 2.8 28.2 6.4 41.9 11.1 28.2 9.7 51.4 17.2 73.8 21q3.2-3 6.3-6.1c3.6-3.7 6.5-7 9-9.7 6.1-6.6 9.3-10.2 13.2-10.1 4.4 0 9 4.7 18.8 14.7q2.4 2.5 5.3 5.4 3.2 3.2 6.3 6.1c11.9-2 24.4-5.2 38.2-9.9zm-211.1 37.1q-4.1 3.5-8.3 6.8c10.8 3 21.5 4.4 32.2 4.4 19.7-0.1 39.2-5.2 57.5-15.1-34.2-29.5-41.2-30.4-81.4 3.9zm-14.8-55.1q3.8-1.9 7.4-3.7c-28.5-5-57.5-6.6-85.3-5.8-43.4 1.1-84 7.6-116.2 14.6-7.7 1.7-14.9 3.5-21.6 5.4 31.8 8.2 62.9 13.4 93.1 14.3q6.2 0.2 12.3 0.2 1.4-1.4 2.7-2.7c4-4.1 7.2-7.5 9.8-10.4 6.2-6.8 9.4-10.3 13.1-10.3 3.9 0 7.7 3.8 15.6 11.5 2.1 2.2 4.6 4.6 7.4 7.3 21.2-3.9 41.8-10.6 61.7-20.4zm-162.9 29.6c-11.8 0.6-23.8 10-43.9 26.6q-5.3 4.4-10.5 8.1 6.6 0.8 13.1 0.8c25.6 0.2 49.9-7.9 71.1-21.8-12.2-9.8-21-14.1-29.8-13.7zm99-8.8q-3.7-3.5-6.5-6.3c-7.5-7.4-11.2-11.1-14.3-11-2.9 0-5.9 3.3-11.8 9.7-2.6 2.8-5.8 6.3-9.8 10.4q-0.6 0.7-1.3 1.3c14.8-0.2 29.4-1.5 43.7-4.1zm209.3 8.9c13 1 26.1 0.7 40-1.4q-2.7-2.5-5.3-5.2-2.9-2.9-5.3-5.4c-9.5-9.6-13.9-14.1-17.5-14.2-3.1 0-6.1 3.3-11.8 9.6-2.5 2.7-5.4 5.9-9.1 9.7q-2.6 2.6-5.3 5.2 7.2 1.1 14.3 1.7zm-108.5-46.3c7.6 0.8 15.3 1.1 22.9 1.1 24.3 0 48.6-3.9 70.7-12.2-37-14.6-56.7-7.5-93.6 11.1zm-317.5 6.2c9.2 3.5 17.6 6.6 24.3 8.9 12.4 4.1 24.8 7.8 37.1 11 7.6-2.1 15.7-4.2 24.7-6.2 32.2-7 73-13.6 116.5-14.7 28.8-0.7 58.7 0.9 88.1 6.4 5.3-2.7 10.1-5.2 14.7-7.5q3-1.5 5.8-2.9c-31.2-4-61.1-14.1-85-29.1-35.7 20.3-73.8 30.8-112 30.8-37.6 0-75.2-10.1-110.8-30.8-13.5 8-27.7 14.8-42.5 20 13.4 4.3 27 9.5 39.1 14.1z"/>
		<path id="Path 6" fill-rule="evenodd" class="s0" d="m-103.8 612v11h-2.3v-11h-4.2v-2h10.8v2zm384.4 0v3.1h4.2v1.9h-4.2v3.9h5.9v2.1h-8.2v-13h8.2v2zm-13.4 11v-13h2.3v10.9h5.9v2.1zm-6.8-5.4v5.4h-2.3v-5.4l-4.4-7.6h2.5l3 5.5 3.1-5.5h2.4zm-12.3-5.6v10.9h-2.3v-10.9h-4.1v-2.1h10.8v2.1zm-16.3 10.2l0.9-2.1q1.3 1 2.7 1 2 0 2-1.4 0-0.7-0.5-1.3-0.5-0.6-2-1.4-1.5-0.7-2-1.2-0.5-0.5-0.8-1.1-0.3-0.7-0.3-1.5 0-1.5 1.1-2.5 1.1-1 2.9-1 2.2 0 3.3 0.9l-0.7 1.9q-1.2-0.8-2.6-0.8-0.8 0-1.2 0.4-0.5 0.4-0.5 1.1 0 1.1 2.5 2.3 1.3 0.6 1.9 1.2 0.6 0.5 0.9 1.2 0.3 0.7 0.3 1.6 0 1.6-1.3 2.6-1.2 1-3.3 1-1.8 0-3.3-0.9zm-14.2-10.2v3h4.5v2h-4.5v5.9h-2.3v-13h8.5v2.1zm-16.7 4.3q0-2.8 1.5-4.7 1.5-1.9 4.1-1.9 2.8 0 4.2 1.7 1.5 1.8 1.5 4.9 0 3.1-1.5 5-1.6 1.8-4.4 1.8-2.6 0-4-1.8-1.4-1.8-1.4-5zm2.4 0q0 2.3 0.7 3.5 0.8 1.3 2.3 1.3 1.7 0 2.6-1.2 0.9-1.3 0.9-3.6 0-4.6-3.3-4.6-1.6 0-2.4 1.3-0.8 1.2-0.8 3.3zm-13.9-4.3v10.9h-2.3v-10.9h-4.1v-2.1h10.8v2.1zm-18.7-2.1h2.3v8.8q0 1.1 0.6 1.7 0.7 0.7 1.8 0.7 1.2 0 1.9-0.7 0.7-0.6 0.7-1.7v-8.8h2.3v9q0 2-1.3 3.1-1.3 1.1-3.6 1.1-2.2 0-3.5-1.1-1.2-1.1-1.2-3.2zm-14.5 6.4q0-2.7 1.6-4.7 1.5-1.9 4-1.9 2.8 0 4.3 1.8 1.5 1.7 1.5 4.8 0 3.2-1.6 5-1.5 1.8-4.3 1.8-2.7 0-4.1-1.8-1.4-1.8-1.4-5zm2.4 0q0 2.3 0.8 3.5 0.8 1.3 2.3 1.3 1.7 0 2.6-1.2 0.9-1.2 0.9-3.6 0-4.5-3.4-4.5-1.5 0-2.3 1.2-0.9 1.2-0.9 3.3zm-18.2 5.9l0.9-2.1q1.4 1 2.7 1 2 0 2-1.4 0-0.7-0.5-1.3-0.4-0.6-1.9-1.3-1.5-0.8-2.1-1.3-0.5-0.4-0.8-1.1-0.2-0.7-0.2-1.5 0-1.5 1.1-2.5 1.1-1 2.8-1 2.2 0 3.3 0.9l-0.7 2q-1.2-0.9-2.6-0.9-0.8 0-1.2 0.4-0.4 0.4-0.4 1.1 0 1.1 2.4 2.3 1.3 0.7 1.9 1.2 0.6 0.5 0.9 1.2 0.3 0.8 0.3 1.6 0 1.6-1.2 2.6-1.3 1-3.4 1-1.8 0-3.3-0.9zm-8.5-10.2v3h4.3v2h-4.3v3.9h5.9v2h-8.2v-13h8.2v2.1zm-16.7 4.3q0-2.7 1.5-4.7 1.5-1.9 4.1-1.9 2.8 0 4.2 1.8 1.5 1.7 1.5 4.8 0 3.2-1.5 5-1.6 1.8-4.4 1.8-2.6 0-4-1.8-1.4-1.8-1.4-5zm2.4 0q0 2.3 0.7 3.5 0.8 1.3 2.3 1.3 1.7 0 2.6-1.2 0.9-1.2 0.9-3.6 0-4.5-3.3-4.5-1.6 0-2.4 1.2-0.8 1.2-0.8 3.3zm-5.5-5.3l-0.9 1.9q-0.5-0.4-1.3-0.8-0.9-0.3-1.5-0.3-1.9 0-3 1.3-1.1 1.3-1.1 3.5 0 2 1.1 3.3 1.1 1.2 2.9 1.2 1.3 0 2.1-0.7v-2.5h-1.8v-2h4.1v5.8q-0.8 0.7-2.1 1.1-1.3 0.3-2.6 0.3-2.8 0-4.5-1.8-1.6-1.8-1.6-4.8 0-3 1.8-4.9 1.8-1.9 4.8-1.9 2.1 0 3.6 1.3zm-19.9 11.9l-3.4-5.3q-0.6 0-1.5-0.1v5.4h-2.4v-13q0.2 0 1.5 0 1.3-0.1 2.1-0.1 4.9 0 4.9 3.8 0 1.2-0.6 2.1-0.7 1-1.8 1.4l3.9 5.8zm-5-11v3.7q0.7 0 1 0 1.5 0 2.1-0.4 0.7-0.4 0.7-1.6 0-0.9-0.7-1.3-0.7-0.4-2.3-0.4-0.3 0-0.8 0zm-11.4 0.1v3h4.2v2h-4.2v3.9h5.9v2h-8.3v-13h8.3v2.1zm-9.9 11.1h-1.2l-4.9-13.2h2.5l3 8.8 3.2-8.8h2.5zm-13.9-11.1v3.1h4.2v1.9h-4.2v3.9h5.9v2.1h-8.2v-13h8.2v2zm-7 11.1l-6.3-8.2v8.1h-2.2v-13h1.1l6.1 7.8v-7.8h2.2v13.1zm-20.5-11.1v11h-2.3v-11h-4.2v-2h10.8v2zm-8.5 11l-1-2.7h-4.5l-0.9 2.7h-2.5l5.1-13.2h1.1l5.2 13.2zm-3.2-9.2l-1.6 4.8h3.2zm-10.5 9.2v-5.9h-5.1v5.9h-2.3v-13h2.3v5.1h5.1v-5.1h2.3v13zm-14.3-11v11h-2.3v-11h-4.2v-2h10.8v2zm-21.4 10.2l0.9-2q1.3 0.9 2.6 0.9 2.1 0 2.1-1.4 0-0.7-0.5-1.3-0.5-0.6-2-1.3-1.5-0.7-2-1.2-0.5-0.5-0.8-1.2-0.3-0.6-0.3-1.4 0-1.6 1.1-2.5 1.1-1 2.9-1 2.2 0 3.3 0.8l-0.7 2q-1.3-0.9-2.6-0.9-0.8 0-1.2 0.4-0.5 0.5-0.5 1.1 0 1.2 2.5 2.4 1.3 0.6 1.9 1.1 0.6 0.6 0.9 1.3 0.3 0.7 0.3 1.6 0 1.5-1.3 2.6-1.2 1-3.3 1-1.8 0-3.3-1zm-8.5-10.2v3.1h4.2v1.9h-4.2v3.9h5.9v2.1h-8.2v-13h8.2v2zm-13.4 11v-13h2.3v10.9h5.9v2.1zm-6.1 0v-13h2.3v13zm-7-11v11h-2.3v-11h-4.1v-2h10.8v2zm-10.3 11l-2.9-4.8-3 4.8h-2.4l4.2-6.7-3.9-6.3h2.4l2.7 4.4 2.8-4.4h2.4l-4 6.3 4.2 6.7zm-16.1-11v3.1h4.2v1.9h-4.2v3.9h5.9v2.1h-8.2v-13h8.2v2z"/>
		<path id="Path 7" fill-rule="evenodd" class="s3" d="m172.2 403.5c-22 8.3-46.3 12.2-70.6 12.2-7.7 0-15.3-0.3-22.9-1.1 36.9-18.6 56.6-25.7 93.5-11.1zm107.2 43.4c12.4-4.7 21.4-7.1 30.5-8.4 9.1-1.2 18.3-1.3 31.2-1.3h172.2v18.9h-185.8c-18.7 0-36.6-2.4-53.8-7q2.8-1.1 5.7-2.2zm-563.4-40.2l-0.3 0.1c-16.6 5.2-34.1 8.4-52.8 9.2v-14.6c12-4.8 31.9-1.1 53.1 5.3zm22.2 46.9q3.7 3.5 7.5 6.8c-14.1 0.7-29.1-1.6-47.9-8.6 2.9-3.1 5.4-5.8 7.4-8.1 5.3-5.7 8-8.8 10.7-8.8 3.1-0.1 6.9 3.6 14.8 11.4q3.3 3.2 7.5 7.3zm170.5 20.9c-21.2 13.9-45.5 22-71.1 21.8q-6.5 0-13.1-0.8 5.2-3.7 10.5-8.1c20.1-16.6 32.1-26 43.9-26.6 8.7-0.4 17.6 3.9 29.8 13.7zm147.9 11.8c40.1-34.3 47.2-33.4 81.4-3.9-18.4 9.9-37.8 15-57.6 15.1-10.6 0-21.4-1.4-32.1-4.4q4.2-3.3 8.3-6.8zm130.6-42c5.7-6.2 8.8-9.6 11.9-9.6 3.6 0.1 8 4.6 17.5 14.2q2.4 2.5 5.2 5.4h0.1q2.6 2.7 5.2 5.2c-13.9 2.1-26.9 2.4-39.9 1.4q-7.1-0.6-14.3-1.7 2.6-2.6 5.3-5.2c3.6-3.8 6.6-7 9-9.7z"/>
	</g>
</svg>